<!DOCTYPE svg PUBLIC "-//W3C//DTD SVG 1.1//EN" "http://www.w3.org/Graphics/SVG/1.1/DTD/svg11.dtd">
<!-- Uploaded to: SVG Find, www.svgrepo.com, Transformed by: SVG Find Mixer Tools -->
<svg fill="#000000" width="800px" height="800px" version="1.1" viewBox="144 144 512 512" xmlns="http://www.w3.org/2000/svg" transform="matrix(1, 0, 0, 1, 0, 0)">
<g id="SVGRepo_bgCarrier" stroke-width="0"/>
<g id="SVGRepo_tracerCarrier" stroke-linecap="round" stroke-linejoin="round" stroke="#CCCCCC" stroke-width="26.624000000000002"> <g> <path d="m555.11 235.95c-11.449 0-22.902 2.2148-33.512 6.4883-18.012-51.066-66.789-86.027-121.6-86.027s-103.59 34.961-121.6 86.027c-10.609-4.2734-21.984-6.4883-33.512-6.4883-49.16 0-89.16 40-89.16 89.16 0 49.16 40 89.16 89.16 89.16h310.15c49.16 0 89.16-40 89.16-89.16 0-49.16-39.926-89.16-89.086-89.16zm0 163.05h-310.22c-40.762 0-73.891-33.133-73.891-73.895s33.129-73.891 73.891-73.891c12.062 0 24.047 2.9766 34.578 8.5508 2.0625 1.0703 4.5039 1.1445 6.5664 0.30469 2.1367-0.91797 3.7422-2.75 4.3516-4.9609 13.586-49.16 58.625-83.438 109.62-83.438s96.027 34.273 109.62 83.359c0.60937 2.2148 2.2148 4.0469 4.3516 4.9609 2.1367 0.91797 4.5039 0.83984 6.5664-0.30469 10.535-5.5742 22.52-8.5508 34.578-8.5508 40.762 0 73.891 33.129 73.891 73.891 0 40.766-33.129 73.973-73.895 73.973z"/> <path d="m400 187.02c-44.121 0-83.051 29.617-94.809 72.059-1.1445 4.0469 1.2969 8.2461 5.3438 9.3906 0.6875 0.15234 1.375 0.30469 2.0625 0.30469 3.3594 0 6.4141-2.2148 7.3281-5.5742 9.9219-35.875 42.82-60.91 80.074-60.91 4.1992 0 7.6328-3.4336 7.6328-7.6328 0-4.1992-3.4375-7.6367-7.6328-7.6367z"/> <path d="m233.29 505.88c-2.4414-0.6875-5.0391-0.15234-6.9453 1.375-5.5742 4.5039-23.816 19.922-26.719 29.77-1.832 6.0312-1.1445 12.367 1.9062 17.938 3.0547 5.5742 8.0156 9.6172 14.047 11.375 2.2148 0.6875 4.5039 0.99219 6.7188 0.99219 3.8945 0 7.7109-0.99219 11.145-2.9023 5.4961-3.0547 9.543-8.0156 11.297-13.969 2.9766-9.9219-4.1211-32.824-6.3359-39.617-0.83984-2.4414-2.75-4.2734-5.1133-4.9609zm-3.207 40.227c-0.60938 2.1367-2.0625 3.8945-3.9688 4.9609-1.9102 1.0703-4.1211 1.2969-6.2578 0.60938-2.1367-0.60938-3.8164-2.0625-4.8867-3.9688-1.0703-1.9844-1.2969-4.1992-0.6875-6.3359 0.76172-2.3672 6.1055-8.3203 12.902-14.578 2.2852 8.9336 3.5859 16.871 2.8984 19.312z"/> <path d="m210.84 582.21c-2.4414-0.6875-5.0391-0.23047-6.9453 1.375-7.0977 5.7266-23.969 20.152-26.793 29.77-3.7422 12.367 3.4336 25.57 15.953 29.312 2.1367 0.60938 4.3516 0.91797 6.4883 0.91797 10.152 0 19.617-6.6406 22.746-16.871 2.9023-9.9219-4.1211-32.746-6.3359-39.543-0.76172-2.4414-2.668-4.2734-5.1133-4.9609zm-3.2031 40.152c-1.2969 4.4258-5.8789 6.8711-10.305 5.6484-4.4258-1.2969-6.9453-5.9531-5.6484-10.305 0.76172-2.3672 6.1055-8.3203 12.902-14.578 2.3633 8.9258 3.6602 16.867 3.0508 19.234z"/> <path d="m237.94 489.92c2.2148 0.6875 4.5039 0.99219 6.7188 0.99219 3.8945 0 7.7109-0.99219 11.223-2.9023 5.4961-3.0547 9.543-8.0156 11.297-13.969 2.9766-9.9219-4.1211-32.824-6.3359-39.617-0.76172-2.3672-2.6719-4.1992-5.1133-4.9609-2.3672-0.6875-5.0391-0.15234-6.9453 1.375-5.4961 4.5039-23.816 19.848-26.793 29.848-1.7539 6.0312-1.0703 12.367 1.9102 17.863 3.0469 5.6445 8.082 9.6914 14.039 11.371zm-1.3008-24.887c0.76172-2.3672 6.1055-8.3203 12.977-14.656 2.2891 9.0078 3.5859 16.945 2.9023 19.312-0.60938 2.1367-1.9844 3.8945-3.9688 4.8867-1.9102 1.0703-4.1992 1.2969-6.3359 0.6875-2.0625-0.60938-3.8164-1.9844-4.8867-3.9688-0.99219-1.9102-1.2188-4.1992-0.6875-6.2617z"/> <path d="m289.54 582.21c-2.4414-0.6875-5.0391-0.23047-6.9453 1.375-5.5742 4.5039-23.895 19.922-26.793 29.77-1.832 6.0312-1.1445 12.367 1.9102 17.938 2.9766 5.4961 7.9375 9.543 14.047 11.375 2.1367 0.60938 4.3516 0.91797 6.4883 0.91797 10.152 0 19.617-6.6406 22.746-16.871 2.9023-9.9219-4.1211-32.746-6.3359-39.543-0.84375-2.4414-2.75-4.2734-5.1172-4.9609zm-3.207 40.152c-1.2969 4.4258-5.8789 6.8711-10.23 5.6484-2.1367-0.60938-3.8945-2.0625-4.9609-4.0469-1.0703-1.9102-1.2969-4.1211-0.6875-6.2578 0.76172-2.3672 6.1055-8.3203 12.902-14.578 2.2891 8.9258 3.5859 16.867 2.9766 19.234z"/> <path d="m312.06 505.88c-2.4414-0.6875-5.0391-0.23047-6.9453 1.375-5.5742 4.5039-23.895 19.922-26.793 29.77-1.832 6.0312-1.1445 12.367 1.9102 17.938 3.0547 5.5742 8.0156 9.6172 14.047 11.375 2.2148 0.6875 4.4258 0.99219 6.6406 0.99219 10.152 0 19.543-6.6406 22.594-16.945 2.9023-9.9219-4.1211-32.746-6.3359-39.543-0.84375-2.4414-2.7539-4.2734-5.1172-4.9609zm-3.207 40.152c-1.2969 4.4258-5.9531 6.9453-10.305 5.6484-2.1367-0.60938-3.8164-2.0625-4.8867-3.9688-1.0703-1.9844-1.2969-4.1992-0.6875-6.3359 0.76172-2.3672 6.1055-8.3203 12.902-14.578 2.2891 8.9297 3.5859 16.867 2.9766 19.234z"/> <path d="m368.24 582.21c-2.3672-0.6875-5.0391-0.15234-6.9453 1.375-5.4961 4.5039-23.816 19.848-26.793 29.848-3.5859 12.367 3.5117 25.496 15.953 29.234 2.2148 0.60938 4.4258 0.91797 6.5664 0.91797 10.23 0 19.695-6.6406 22.672-16.871 2.9023-9.9219-4.1211-32.746-6.3359-39.543-0.76562-2.4414-2.6719-4.2734-5.1172-4.9609zm-3.2031 40.227c-1.2969 4.3516-5.8789 6.8711-10.23 5.5742-4.3516-1.2969-6.8711-5.9531-5.6484-10.23 0.76172-2.3672 6.1055-8.3203 12.977-14.656 2.2148 9.0078 3.5117 16.871 2.9023 19.312z"/> <path d="m316.72 489.92c2.2148 0.6875 4.4258 0.99219 6.6406 0.99219 10.152 0 19.543-6.6406 22.594-16.945 2.9023-9.9219-4.1211-32.746-6.3359-39.543-0.76172-2.3672-2.6719-4.1992-5.1133-4.9609-2.4414-0.6875-5.0391-0.23047-6.9453 1.375-5.5742 4.5039-23.895 19.922-26.793 29.77-1.832 6.0312-1.1445 12.367 1.9102 17.938 3.0508 5.6484 8.0859 9.6953 14.043 11.375zm-1.2227-24.887c0.76172-2.3672 6.1055-8.3203 12.977-14.578 2.2891 9.0078 3.5859 16.945 2.9766 19.312-1.2969 4.4258-5.9531 6.9453-10.305 5.6484-2.0625-0.60938-3.8164-2.0625-4.8867-3.9688-1.2188-2.0625-1.4492-4.2773-0.76172-6.4141z"/> <path d="m390.76 505.88c-2.4414-0.6875-5.0391-0.23047-6.9453 1.375-5.5742 4.5039-23.895 19.922-26.793 29.848-3.6641 12.52 3.5117 25.57 15.953 29.234 2.2148 0.6875 4.4258 0.99219 6.6406 0.99219 10.152 0 19.543-6.6406 22.594-16.945 2.9023-9.9219-4.1211-32.746-6.3359-39.543-0.76172-2.4414-2.6719-4.2734-5.1133-4.9609zm-3.207 40.152c-1.2969 4.4258-5.9531 6.9453-10.305 5.6484s-6.8711-5.8789-5.5742-10.305c0.76172-2.3672 6.1055-8.3203 12.977-14.578 2.293 8.9297 3.5156 16.867 2.9023 19.234z"/> <path d="m395.42 489.92c2.2148 0.6875 4.4258 0.99219 6.6406 0.99219 10.152 0 19.543-6.6406 22.594-16.945 2.9023-9.9219-4.1211-32.746-6.3359-39.543-0.76172-2.3672-2.6719-4.2734-5.1133-4.9609s-5.0391-0.23047-6.9453 1.375c-5.5742 4.5039-23.895 19.922-26.793 29.77-1.832 6.0312-1.1445 12.367 1.9102 17.938 3.0508 5.6484 8.0898 9.6172 14.043 11.375zm-1.2227-24.887c0.76172-2.3672 6.1055-8.3203 12.902-14.578 2.2891 9.0078 3.5859 16.945 2.9766 19.312-1.2969 4.4258-5.9531 6.9453-10.305 5.6484-2.1367-0.60938-3.8164-2.0625-4.8867-3.9688-1.1445-2.0625-1.3711-4.2773-0.6875-6.4141z"/> <path d="m446.95 582.21c-2.4414-0.6875-5.0391-0.15234-6.9453 1.375-5.4961 4.5039-23.816 19.848-26.793 29.848-3.5859 12.367 3.5117 25.496 15.953 29.234 2.2148 0.60938 4.4258 0.91797 6.5664 0.91797 10.23 0 19.695-6.6406 22.594-16.871 2.9766-9.9219-4.1211-32.824-6.3359-39.617-0.76562-2.3672-2.6719-4.1992-5.0391-4.8867zm-3.207 40.227c-1.2969 4.3516-5.8789 6.8711-10.23 5.5742-4.3516-1.2969-6.8711-5.9531-5.6484-10.23 0.76172-2.3672 6.1055-8.3203 12.977-14.656 2.293 8.9297 3.5898 16.871 2.9023 19.312z"/> <path d="m469.46 505.88c-2.3672-0.6875-5.0391-0.15234-6.9453 1.375-5.4961 4.5039-23.816 19.848-26.793 29.848-3.6641 12.52 3.5117 25.648 15.879 29.234 2.2148 0.6875 4.5039 0.99219 6.7188 0.99219 3.8945 0 7.7109-0.99219 11.223-2.9023 5.5742-3.0547 9.543-8.0156 11.297-13.969 2.9766-9.9219-4.1211-32.824-6.3359-39.617-0.76953-2.4414-2.6797-4.2734-5.043-4.9609zm-3.207 40.227c-0.60937 2.1367-1.9844 3.8164-3.9688 4.8867-1.9844 1.0703-4.1992 1.2969-6.3359 0.6875-4.3516-1.2969-6.8711-5.8789-5.5742-10.23 0.76172-2.3672 6.1055-8.3203 12.977-14.656 2.2891 8.9336 3.5898 16.871 2.9023 19.312z"/> <path d="m570.68 429.54c-2.4414-0.6875-5.0391-0.15234-6.9453 1.375-5.4961 4.5039-23.816 19.848-26.793 29.848-1.7539 6.0312-1.0703 12.367 1.9102 17.863 3.0547 5.5742 8.0156 9.6172 13.969 11.297 2.2148 0.6875 4.5039 0.99219 6.7188 0.99219 3.8945 0 7.7109-0.99219 11.223-2.9023 5.4961-3.0547 9.543-8.0156 11.297-14.047 2.9766-9.9219-4.1211-32.824-6.3359-39.543-0.76953-2.3633-2.6758-4.1953-5.043-4.8828zm-3.207 40.23c-0.60937 2.1367-1.9844 3.8945-3.9688 4.8867-1.9102 1.0703-4.1992 1.2969-6.3359 0.6875-2.0625-0.60938-3.8164-1.9844-4.8867-3.9688-1.0703-1.9844-1.2969-4.1992-0.6875-6.2578 0.76172-2.3672 6.1055-8.3203 12.977-14.656 2.293 8.9258 3.5898 16.863 2.9023 19.309l7.3281 2.1367z"/> <path d="m525.64 582.21c-2.4414-0.6875-5.0391-0.15234-6.9453 1.375-5.5742 4.5039-23.816 19.922-26.719 29.77-3.7422 12.367 3.3594 25.496 15.879 29.312 2.2148 0.60938 4.4258 0.91797 6.5664 0.91797 10.23 0 19.695-6.6406 22.594-16.871 2.9766-9.9219-4.1211-32.824-6.3359-39.617-0.76172-2.3672-2.6719-4.1992-5.0391-4.8867zm-3.2031 40.227c-1.2969 4.3516-5.8789 6.8711-10.23 5.5742-4.3516-1.2969-6.8711-5.9531-5.5742-10.305 0.76172-2.3672 6.1055-8.3203 12.902-14.578 2.2891 8.9258 3.5859 16.867 2.9023 19.309z"/> <path d="m474.12 489.92c2.2148 0.6875 4.5039 0.99219 6.7188 0.99219 3.8945 0 7.7109-0.99219 11.223-2.9023 5.5742-3.0547 9.543-8.0156 11.297-14.047 2.9023-9.9219-4.1211-32.746-6.3359-39.543-0.76172-2.3672-2.6719-4.2734-5.1133-4.9609-2.3672-0.6875-5.0391-0.15234-6.9453 1.375-5.4961 4.5039-23.816 19.848-26.793 29.848-3.5938 12.52 3.582 25.648 15.949 29.238zm-1.3008-24.887c0.76172-2.3672 6.1055-8.3203 12.977-14.656 2.2891 9.0078 3.5859 16.945 2.9023 19.312-0.60938 2.1367-1.9844 3.8164-3.9688 4.8867-1.9102 1.0703-4.1992 1.2969-6.3359 0.6875-4.2734-1.2227-6.793-5.8789-5.5742-10.23z"/> <path d="m548.16 505.88c-2.3672-0.6875-5.0391-0.15234-6.9453 1.375-5.4961 4.5039-23.816 19.848-26.793 29.848-3.6641 12.52 3.5117 25.648 15.879 29.234 2.2148 0.6875 4.5039 0.99219 6.7188 0.99219 3.8945 0 7.7109-0.99219 11.223-2.9023 5.4961-3.0547 9.543-8.0156 11.297-13.969 2.9766-9.9219-4.1211-32.824-6.3359-39.617-0.76953-2.4414-2.6758-4.2734-5.043-4.9609zm-3.207 40.227c-0.60938 2.1367-1.9844 3.8945-3.9688 4.8867-1.9102 1.0703-4.1992 1.2969-6.3359 0.6875-4.2734-1.2227-6.793-5.9531-5.5742-10.23 0.76172-2.3672 6.1055-8.3203 12.977-14.656 2.293 8.9336 3.5898 16.871 2.9023 19.312z"/> </g> </g>
<g id="SVGRepo_iconCarrier"> <g> <path d="m555.11 235.95c-11.449 0-22.902 2.2148-33.512 6.4883-18.012-51.066-66.789-86.027-121.6-86.027s-103.59 34.961-121.6 86.027c-10.609-4.2734-21.984-6.4883-33.512-6.4883-49.16 0-89.16 40-89.16 89.16 0 49.16 40 89.16 89.16 89.16h310.15c49.16 0 89.16-40 89.16-89.16 0-49.16-39.926-89.16-89.086-89.16zm0 163.05h-310.22c-40.762 0-73.891-33.133-73.891-73.895s33.129-73.891 73.891-73.891c12.062 0 24.047 2.9766 34.578 8.5508 2.0625 1.0703 4.5039 1.1445 6.5664 0.30469 2.1367-0.91797 3.7422-2.75 4.3516-4.9609 13.586-49.16 58.625-83.438 109.62-83.438s96.027 34.273 109.62 83.359c0.60937 2.2148 2.2148 4.0469 4.3516 4.9609 2.1367 0.91797 4.5039 0.83984 6.5664-0.30469 10.535-5.5742 22.52-8.5508 34.578-8.5508 40.762 0 73.891 33.129 73.891 73.891 0 40.766-33.129 73.973-73.895 73.973z"/> <path d="m400 187.02c-44.121 0-83.051 29.617-94.809 72.059-1.1445 4.0469 1.2969 8.2461 5.3438 9.3906 0.6875 0.15234 1.375 0.30469 2.0625 0.30469 3.3594 0 6.4141-2.2148 7.3281-5.5742 9.9219-35.875 42.82-60.91 80.074-60.91 4.1992 0 7.6328-3.4336 7.6328-7.6328 0-4.1992-3.4375-7.6367-7.6328-7.6367z"/> <path d="m233.29 505.88c-2.4414-0.6875-5.0391-0.15234-6.9453 1.375-5.5742 4.5039-23.816 19.922-26.719 29.77-1.832 6.0312-1.1445 12.367 1.9062 17.938 3.0547 5.5742 8.0156 9.6172 14.047 11.375 2.2148 0.6875 4.5039 0.99219 6.7188 0.99219 3.8945 0 7.7109-0.99219 11.145-2.9023 5.4961-3.0547 9.543-8.0156 11.297-13.969 2.9766-9.9219-4.1211-32.824-6.3359-39.617-0.83984-2.4414-2.75-4.2734-5.1133-4.9609zm-3.207 40.227c-0.60938 2.1367-2.0625 3.8945-3.9688 4.9609-1.9102 1.0703-4.1211 1.2969-6.2578 0.60938-2.1367-0.60938-3.8164-2.0625-4.8867-3.9688-1.0703-1.9844-1.2969-4.1992-0.6875-6.3359 0.76172-2.3672 6.1055-8.3203 12.902-14.578 2.2852 8.9336 3.5859 16.871 2.8984 19.312z"/> <path d="m210.84 582.21c-2.4414-0.6875-5.0391-0.23047-6.9453 1.375-7.0977 5.7266-23.969 20.152-26.793 29.77-3.7422 12.367 3.4336 25.57 15.953 29.312 2.1367 0.60938 4.3516 0.91797 6.4883 0.91797 10.152 0 19.617-6.6406 22.746-16.871 2.9023-9.9219-4.1211-32.746-6.3359-39.543-0.76172-2.4414-2.668-4.2734-5.1133-4.9609zm-3.2031 40.152c-1.2969 4.4258-5.8789 6.8711-10.305 5.6484-4.4258-1.2969-6.9453-5.9531-5.6484-10.305 0.76172-2.3672 6.1055-8.3203 12.902-14.578 2.3633 8.9258 3.6602 16.867 3.0508 19.234z"/> <path d="m237.94 489.92c2.2148 0.6875 4.5039 0.99219 6.7188 0.99219 3.8945 0 7.7109-0.99219 11.223-2.9023 5.4961-3.0547 9.543-8.0156 11.297-13.969 2.9766-9.9219-4.1211-32.824-6.3359-39.617-0.76172-2.3672-2.6719-4.1992-5.1133-4.9609-2.3672-0.6875-5.0391-0.15234-6.9453 1.375-5.4961 4.5039-23.816 19.848-26.793 29.848-1.7539 6.0312-1.0703 12.367 1.9102 17.863 3.0469 5.6445 8.082 9.6914 14.039 11.371zm-1.3008-24.887c0.76172-2.3672 6.1055-8.3203 12.977-14.656 2.2891 9.0078 3.5859 16.945 2.9023 19.312-0.60938 2.1367-1.9844 3.8945-3.9688 4.8867-1.9102 1.0703-4.1992 1.2969-6.3359 0.6875-2.0625-0.60938-3.8164-1.9844-4.8867-3.9688-0.99219-1.9102-1.2188-4.1992-0.6875-6.2617z"/> <path d="m289.54 582.21c-2.4414-0.6875-5.0391-0.23047-6.9453 1.375-5.5742 4.5039-23.895 19.922-26.793 29.77-1.832 6.0312-1.1445 12.367 1.9102 17.938 2.9766 5.4961 7.9375 9.543 14.047 11.375 2.1367 0.60938 4.3516 0.91797 6.4883 0.91797 10.152 0 19.617-6.6406 22.746-16.871 2.9023-9.9219-4.1211-32.746-6.3359-39.543-0.84375-2.4414-2.75-4.2734-5.1172-4.9609zm-3.207 40.152c-1.2969 4.4258-5.8789 6.8711-10.23 5.6484-2.1367-0.60938-3.8945-2.0625-4.9609-4.0469-1.0703-1.9102-1.2969-4.1211-0.6875-6.2578 0.76172-2.3672 6.1055-8.3203 12.902-14.578 2.2891 8.9258 3.5859 16.867 2.9766 19.234z"/> <path d="m312.06 505.88c-2.4414-0.6875-5.0391-0.23047-6.9453 1.375-5.5742 4.5039-23.895 19.922-26.793 29.77-1.832 6.0312-1.1445 12.367 1.9102 17.938 3.0547 5.5742 8.0156 9.6172 14.047 11.375 2.2148 0.6875 4.4258 0.99219 6.6406 0.99219 10.152 0 19.543-6.6406 22.594-16.945 2.9023-9.9219-4.1211-32.746-6.3359-39.543-0.84375-2.4414-2.7539-4.2734-5.1172-4.9609zm-3.207 40.152c-1.2969 4.4258-5.9531 6.9453-10.305 5.6484-2.1367-0.60938-3.8164-2.0625-4.8867-3.9688-1.0703-1.9844-1.2969-4.1992-0.6875-6.3359 0.76172-2.3672 6.1055-8.3203 12.902-14.578 2.2891 8.9297 3.5859 16.867 2.9766 19.234z"/> <path d="m368.24 582.21c-2.3672-0.6875-5.0391-0.15234-6.9453 1.375-5.4961 4.5039-23.816 19.848-26.793 29.848-3.5859 12.367 3.5117 25.496 15.953 29.234 2.2148 0.60938 4.4258 0.91797 6.5664 0.91797 10.23 0 19.695-6.6406 22.672-16.871 2.9023-9.9219-4.1211-32.746-6.3359-39.543-0.76562-2.4414-2.6719-4.2734-5.1172-4.9609zm-3.2031 40.227c-1.2969 4.3516-5.8789 6.8711-10.23 5.5742-4.3516-1.2969-6.8711-5.9531-5.6484-10.23 0.76172-2.3672 6.1055-8.3203 12.977-14.656 2.2148 9.0078 3.5117 16.871 2.9023 19.312z"/> <path d="m316.72 489.92c2.2148 0.6875 4.4258 0.99219 6.6406 0.99219 10.152 0 19.543-6.6406 22.594-16.945 2.9023-9.9219-4.1211-32.746-6.3359-39.543-0.76172-2.3672-2.6719-4.1992-5.1133-4.9609-2.4414-0.6875-5.0391-0.23047-6.9453 1.375-5.5742 4.5039-23.895 19.922-26.793 29.77-1.832 6.0312-1.1445 12.367 1.9102 17.938 3.0508 5.6484 8.0859 9.6953 14.043 11.375zm-1.2227-24.887c0.76172-2.3672 6.1055-8.3203 12.977-14.578 2.2891 9.0078 3.5859 16.945 2.9766 19.312-1.2969 4.4258-5.9531 6.9453-10.305 5.6484-2.0625-0.60938-3.8164-2.0625-4.8867-3.9688-1.2188-2.0625-1.4492-4.2773-0.76172-6.4141z"/> <path d="m390.76 505.88c-2.4414-0.6875-5.0391-0.23047-6.9453 1.375-5.5742 4.5039-23.895 19.922-26.793 29.848-3.6641 12.52 3.5117 25.57 15.953 29.234 2.2148 0.6875 4.4258 0.99219 6.6406 0.99219 10.152 0 19.543-6.6406 22.594-16.945 2.9023-9.9219-4.1211-32.746-6.3359-39.543-0.76172-2.4414-2.6719-4.2734-5.1133-4.9609zm-3.207 40.152c-1.2969 4.4258-5.9531 6.9453-10.305 5.6484s-6.8711-5.8789-5.5742-10.305c0.76172-2.3672 6.1055-8.3203 12.977-14.578 2.293 8.9297 3.5156 16.867 2.9023 19.234z"/> <path d="m395.42 489.92c2.2148 0.6875 4.4258 0.99219 6.6406 0.99219 10.152 0 19.543-6.6406 22.594-16.945 2.9023-9.9219-4.1211-32.746-6.3359-39.543-0.76172-2.3672-2.6719-4.2734-5.1133-4.9609s-5.0391-0.23047-6.9453 1.375c-5.5742 4.5039-23.895 19.922-26.793 29.77-1.832 6.0312-1.1445 12.367 1.9102 17.938 3.0508 5.6484 8.0898 9.6172 14.043 11.375zm-1.2227-24.887c0.76172-2.3672 6.1055-8.3203 12.902-14.578 2.2891 9.0078 3.5859 16.945 2.9766 19.312-1.2969 4.4258-5.9531 6.9453-10.305 5.6484-2.1367-0.60938-3.8164-2.0625-4.8867-3.9688-1.1445-2.0625-1.3711-4.2773-0.6875-6.4141z"/> <path d="m446.95 582.21c-2.4414-0.6875-5.0391-0.15234-6.9453 1.375-5.4961 4.5039-23.816 19.848-26.793 29.848-3.5859 12.367 3.5117 25.496 15.953 29.234 2.2148 0.60938 4.4258 0.91797 6.5664 0.91797 10.23 0 19.695-6.6406 22.594-16.871 2.9766-9.9219-4.1211-32.824-6.3359-39.617-0.76562-2.3672-2.6719-4.1992-5.0391-4.8867zm-3.207 40.227c-1.2969 4.3516-5.8789 6.8711-10.23 5.5742-4.3516-1.2969-6.8711-5.9531-5.6484-10.23 0.76172-2.3672 6.1055-8.3203 12.977-14.656 2.293 8.9297 3.5898 16.871 2.9023 19.312z"/> <path d="m469.46 505.88c-2.3672-0.6875-5.0391-0.15234-6.9453 1.375-5.4961 4.5039-23.816 19.848-26.793 29.848-3.6641 12.52 3.5117 25.648 15.879 29.234 2.2148 0.6875 4.5039 0.99219 6.7188 0.99219 3.8945 0 7.7109-0.99219 11.223-2.9023 5.5742-3.0547 9.543-8.0156 11.297-13.969 2.9766-9.9219-4.1211-32.824-6.3359-39.617-0.76953-2.4414-2.6797-4.2734-5.043-4.9609zm-3.207 40.227c-0.60937 2.1367-1.9844 3.8164-3.9688 4.8867-1.9844 1.0703-4.1992 1.2969-6.3359 0.6875-4.3516-1.2969-6.8711-5.8789-5.5742-10.23 0.76172-2.3672 6.1055-8.3203 12.977-14.656 2.2891 8.9336 3.5898 16.871 2.9023 19.312z"/> <path d="m570.68 429.54c-2.4414-0.6875-5.0391-0.15234-6.9453 1.375-5.4961 4.5039-23.816 19.848-26.793 29.848-1.7539 6.0312-1.0703 12.367 1.9102 17.863 3.0547 5.5742 8.0156 9.6172 13.969 11.297 2.2148 0.6875 4.5039 0.99219 6.7188 0.99219 3.8945 0 7.7109-0.99219 11.223-2.9023 5.4961-3.0547 9.543-8.0156 11.297-14.047 2.9766-9.9219-4.1211-32.824-6.3359-39.543-0.76953-2.3633-2.6758-4.1953-5.043-4.8828zm-3.207 40.23c-0.60937 2.1367-1.9844 3.8945-3.9688 4.8867-1.9102 1.0703-4.1992 1.2969-6.3359 0.6875-2.0625-0.60938-3.8164-1.9844-4.8867-3.9688-1.0703-1.9844-1.2969-4.1992-0.6875-6.2578 0.76172-2.3672 6.1055-8.3203 12.977-14.656 2.293 8.9258 3.5898 16.863 2.9023 19.309l7.3281 2.1367z"/> <path d="m525.64 582.21c-2.4414-0.6875-5.0391-0.15234-6.9453 1.375-5.5742 4.5039-23.816 19.922-26.719 29.77-3.7422 12.367 3.3594 25.496 15.879 29.312 2.2148 0.60938 4.4258 0.91797 6.5664 0.91797 10.23 0 19.695-6.6406 22.594-16.871 2.9766-9.9219-4.1211-32.824-6.3359-39.617-0.76172-2.3672-2.6719-4.1992-5.0391-4.8867zm-3.2031 40.227c-1.2969 4.3516-5.8789 6.8711-10.23 5.5742-4.3516-1.2969-6.8711-5.9531-5.5742-10.305 0.76172-2.3672 6.1055-8.3203 12.902-14.578 2.2891 8.9258 3.5859 16.867 2.9023 19.309z"/> <path d="m474.12 489.92c2.2148 0.6875 4.5039 0.99219 6.7188 0.99219 3.8945 0 7.7109-0.99219 11.223-2.9023 5.5742-3.0547 9.543-8.0156 11.297-14.047 2.9023-9.9219-4.1211-32.746-6.3359-39.543-0.76172-2.3672-2.6719-4.2734-5.1133-4.9609-2.3672-0.6875-5.0391-0.15234-6.9453 1.375-5.4961 4.5039-23.816 19.848-26.793 29.848-3.5938 12.52 3.582 25.648 15.949 29.238zm-1.3008-24.887c0.76172-2.3672 6.1055-8.3203 12.977-14.656 2.2891 9.0078 3.5859 16.945 2.9023 19.312-0.60938 2.1367-1.9844 3.8164-3.9688 4.8867-1.9102 1.0703-4.1992 1.2969-6.3359 0.6875-4.2734-1.2227-6.793-5.8789-5.5742-10.23z"/> <path d="m548.16 505.88c-2.3672-0.6875-5.0391-0.15234-6.9453 1.375-5.4961 4.5039-23.816 19.848-26.793 29.848-3.6641 12.52 3.5117 25.648 15.879 29.234 2.2148 0.6875 4.5039 0.99219 6.7188 0.99219 3.8945 0 7.7109-0.99219 11.223-2.9023 5.4961-3.0547 9.543-8.0156 11.297-13.969 2.9766-9.9219-4.1211-32.824-6.3359-39.617-0.76953-2.4414-2.6758-4.2734-5.043-4.9609zm-3.207 40.227c-0.60938 2.1367-1.9844 3.8945-3.9688 4.8867-1.9102 1.0703-4.1992 1.2969-6.3359 0.6875-4.2734-1.2227-6.793-5.9531-5.5742-10.23 0.76172-2.3672 6.1055-8.3203 12.977-14.656 2.293 8.9336 3.5898 16.871 2.9023 19.312z"/> </g> </g>
</svg>